<svg width="31" height="29" viewBox="0 0 31 29" version="1.1" xmlns="http://www.w3.org/2000/svg" xmlns:xlink="http://www.w3.org/1999/xlink">
<title>desktop</title>
<desc>Created using Figma</desc>
<g id="Canvas" transform="translate(-32 1195)">
<g id="desktop">
<g id="Shape">
<use xlink:href="#path0_stroke" transform="translate(50.5 -1171.5)" fill="#B0B4C4"/>
</g>
<g id="Shape">
<use xlink:href="#path1_stroke" transform="translate(44.5 -1171.5)" fill="#B0B4C4"/>
</g>
<g id="Shape">
<use xlink:href="#path2_stroke" transform="translate(40.5 -1166.5)" fill="#B0B4C4"/>
</g>
<g id="Shape">
<use xlink:href="#path3_stroke" transform="translate(46.5 -1190.5)" fill="#B0B4C4"/>
</g>
<g id="Shape">
<use xlink:href="#path4_stroke" transform="translate(32.5 -1194.5)" fill="#B0B4C4"/>
</g>
<g id="Shape">
<use xlink:href="#path5_stroke" transform="translate(32.5 -1177.5)" fill="#B0B4C4"/>
</g>
</g>
</g>
<defs>
<path id="path0_stroke" d="M 0.5 0L 0.5 -0.5L -0.5 -0.5L -0.5 0L 0.5 0ZM -0.5 5L -0.5 5.5L 0.5 5.5L 0.5 5L -0.5 5ZM -0.5 0L -0.5 5L 0.5 5L 0.5 0L -0.5 0Z"/>
<path id="path1_stroke" d="M -0.5 5L -0.5 5.5L 0.5 5.5L 0.5 5L -0.5 5ZM 0.5 0L 0.5 -0.5L -0.5 -0.5L -0.5 0L 0.5 0ZM 0.5 5L 0.5 0L -0.5 0L -0.5 5L 0.5 5Z"/>
<path id="path2_stroke" d="M 0 -0.5L -0.5 -0.5L -0.5 0.5L 0 0.5L 0 -0.5ZM 14 0.5L 14.5 0.5L 14.5 -0.5L 14 -0.5L 14 0.5ZM 0 0.5L 14 0.5L 14 -0.5L 0 -0.5L 0 0.5Z"/>
<path id="path3_stroke" d="M 0 -0.5L -0.5 -0.5L -0.5 0.5L 0 0.5L 0 -0.5ZM 2 0.5L 2.5 0.5L 2.5 -0.5L 2 -0.5L 2 0.5ZM 0 0.5L 2 0.5L 2 -0.5L 0 -0.5L 0 0.5Z"/>
<path id="path4_stroke" d="M 28 22.5L 2 22.5L 2 23.5L 28 23.5L 28 22.5ZM 2 22.5C 1.17614 22.5 0.5 21.8239 0.5 21L -0.5 21C -0.5 22.3761 0.623858 23.5 2 23.5L 2 22.5ZM 0.5 21L 0.5 2L -0.5 2L -0.5 21L 0.5 21ZM 0.5 2C 0.5 1.17614 1.17614 0.5 2 0.5L 2 -0.5C 0.623858 -0.5 -0.5 0.623858 -0.5 2L 0.5 2ZM 2 0.5L 28 0.5L 28 -0.5L 2 -0.5L 2 0.5ZM 28 0.5C 28.8239 0.5 29.5 1.17614 29.5 2L 30.5 2C 30.5 0.623858 29.3761 -0.5 28 -0.5L 28 0.5ZM 29.5 2L 29.5 21L 30.5 21L 30.5 2L 29.5 2ZM 29.5 21C 29.5 21.8239 28.8239 22.5 28 22.5L 28 23.5C 29.3761 23.5 30.5 22.3761 30.5 21L 29.5 21Z"/>
<path id="path5_stroke" d="M 0 -0.5L -0.5 -0.5L -0.5 0.5L 0 0.5L 0 -0.5ZM 30 0.5L 30.5 0.5L 30.5 -0.5L 30 -0.5L 30 0.5ZM 0 0.5L 30 0.5L 30 -0.5L 0 -0.5L 0 0.5Z"/>
</defs>
</svg>
