<svg width="32" height="32" viewBox="0 0 32 32" version="1.1" xmlns="http://www.w3.org/2000/svg" xmlns:xlink="http://www.w3.org/1999/xlink">
<title>fast-pay</title>
<desc>Created using Figma</desc>
<g id="Canvas" transform="translate(267 885)">
<g id="fast-pay">
<g id="Shape">
<use xlink:href="#path0_stroke" transform="translate(-255 -877)" fill="#8A91FF"/>
</g>
<g id="Oval">
<use xlink:href="#path1_stroke" transform="translate(-266 -884)" fill="#8A91FF"/>
</g>
</g>
</g>
<defs>
<path id="path0_stroke" d="M 6.8 0.6L 7.4 -0.2L 5.8 -1.4L 5.2 -0.6L 6.8 0.6ZM 0 8L -0.8 7.4L -2 9L 0 9L 0 8ZM 8 8L 8.8 8.6L 10 7L 8 7L 8 8ZM 1.2 15.4L 0.6 16.2L 2.2 17.4L 2.8 16.6L 1.2 15.4ZM 5.2 -0.6L -0.8 7.4L 0.8 8.6L 6.8 0.6L 5.2 -0.6ZM 0 9L 8 9L 8 7L 0 7L 0 9ZM 7.2 7.4L 1.2 15.4L 2.8 16.6L 8.8 8.6L 7.2 7.4Z"/>
<path id="path1_stroke" d="M 15 31C 23.8366 31 31 23.8366 31 15L 29 15C 29 22.732 22.732 29 15 29L 15 31ZM 31 15C 31 6.16344 23.8366 -1 15 -1L 15 1C 22.732 1 29 7.26801 29 15L 31 15ZM 15 -1C 6.16344 -1 -1 6.16344 -1 15L 1 15C 1 7.26801 7.26801 1 15 1L 15 -1ZM -1 15C -1 23.8366 6.16344 31 15 31L 15 29C 7.26801 29 1 22.732 1 15L -1 15Z"/>
</defs>
</svg>
