<svg width="31" height="25" viewBox="0 0 31 25" version="1.1" xmlns="http://www.w3.org/2000/svg" xmlns:xlink="http://www.w3.org/1999/xlink">
<title>laptop</title>
<desc>Created using Figma</desc>
<g id="Canvas" transform="translate(80 1192)">
<g id="laptop" opacity="0.9">
<g id="Shape">
<use xlink:href="#path0_stroke" transform="translate(-79.5 -1171.5)" fill="#B0B4C4"/>
</g>
<g id="Shape">
<use xlink:href="#path1_stroke" transform="translate(-76.5 -1191.5)" fill="#B0B4C4"/>
</g>
<g id="Shape">
<use xlink:href="#path2_stroke" transform="translate(-65.5 -1187.5)" fill="#B0B4C4"/>
</g>
</g>
</g>
<defs>
<path id="path0_stroke" d="M 26 3.5L 4 3.5L 4 4.5L 26 4.5L 26 3.5ZM 4 3.5C 2.06714 3.5 0.5 1.93286 0.5 0L -0.5 0C -0.5 2.48514 1.51486 4.5 4 4.5L 4 3.5ZM 0 0.5L 30 0.5L 30 -0.5L 0 -0.5L 0 0.5ZM 29.5 0C 29.5 1.93286 27.9329 3.5 26 3.5L 26 4.5C 28.4851 4.5 30.5 2.48514 30.5 0L 29.5 0Z"/>
<path id="path1_stroke" d="M -0.5 16L -0.5 16.5L 0.5 16.5L 0.5 16L -0.5 16ZM 23.5 16L 23.5 16.5L 24.5 16.5L 24.5 16L 23.5 16ZM 0.5 16L 0.5 2L -0.5 2L -0.5 16L 0.5 16ZM 0.5 2C 0.5 1.17114 1.17114 0.5 2 0.5L 2 -0.5C 0.618858 -0.5 -0.5 0.618858 -0.5 2L 0.5 2ZM 2 0.5L 22 0.5L 22 -0.5L 2 -0.5L 2 0.5ZM 22 0.5C 22.8289 0.5 23.5 1.17114 23.5 2L 24.5 2C 24.5 0.618858 23.3811 -0.5 22 -0.5L 22 0.5ZM 23.5 2L 23.5 16L 24.5 16L 24.5 2L 23.5 2Z"/>
<path id="path2_stroke" d="M 0 -0.5L -0.5 -0.5L -0.5 0.5L 0 0.5L 0 -0.5ZM 2 0.5L 2.5 0.5L 2.5 -0.5L 2 -0.5L 2 0.5ZM 0 0.5L 2 0.5L 2 -0.5L 0 -0.5L 0 0.5Z"/>
</defs>
</svg>
