<svg width="28" height="32" viewBox="0 0 28 32" version="1.1" xmlns="http://www.w3.org/2000/svg" xmlns:xlink="http://www.w3.org/1999/xlink">
<title>location</title>
<desc>Created using Figma</desc>
<g id="Canvas" transform="matrix(2 0 0 2 812 -1648)">
<g id="location">
<use xlink:href="#path0_fill" transform="translate(-406 824)" fill="#FFFFFF"/>
</g>
</g>
<defs>
<path id="path0_fill" fill-rule="evenodd" d="M 5.59018 15.055C 5.99475 15.4133 6.27475 15.6612 6.29999 15.6864C 6.70001 16.0861 7.29999 16.0861 7.70001 15.7863C 7.75003 15.7363 8.77643 14.8109 9.80215 13.886C 10.8264 12.9625 11.85 12.0396 11.9 11.9896C 13.3 10.6907 14 8.89233 14 6.99396C 14 3.09729 10.9 0 7 0C 3.10001 0 0 3.09729 0 6.99396C 0 8.89233 0.700012 10.6907 2.10001 11.8897C 2.10001 11.9644 4.39169 13.9937 5.59018 15.055ZM 7 13.6882L 3.60001 10.6908C 2.60001 9.69165 2 8.39276 2 6.99396C 2 4.19641 4.20001 2.09821 7 2.09821C 9.79999 2.09821 12 4.29633 12 7.09387C 12 8.49268 11.4 9.69165 10.4 10.6908L 7 13.6882Z"/>
</defs>
</svg>
