<svg width="102" height="20" viewBox="0 0 102 20" version="1.1" xmlns="http://www.w3.org/2000/svg" xmlns:xlink="http://www.w3.org/1999/xlink">
<title>logo_footer</title>
<desc>Created using Figma</desc>
<g id="Canvas" transform="translate(434 -1212)">
<g id="logo_footer">
<g id="Logo">
<use xlink:href="#path0_fill" transform="translate(-436 1206)" fill="#FFFFFF"/>
</g>
<g id="Rectangle">
<use xlink:href="#path1_fill" transform="translate(-337 1227)" fill="#8A91FF"/>
</g>
</g>
</g>
<defs>
<path id="path0_fill" d="M 2.241 6.1L 10.827 6.1C 12.879 6.1 14.688 6.496 16.254 7.288C 17.838 8.062 19.062 9.16 19.926 10.582C 20.808 12.004 21.249 13.66 21.249 15.55C 21.249 17.44 20.808 19.096 19.926 20.518C 19.062 21.94 17.838 23.047 16.254 23.839C 14.688 24.613 12.879 25 10.827 25L 2.241 25L 2.241 6.1ZM 10.611 21.409C 12.501 21.409 14.004 20.887 15.12 19.843C 16.254 18.781 16.821 17.35 16.821 15.55C 16.821 13.75 16.254 12.328 15.12 11.284C 14.004 10.222 12.501 9.691 10.611 9.691L 6.615 9.691L 6.615 21.409L 10.611 21.409ZM 29.5476 6.1L 33.9216 6.1L 33.9216 21.436L 43.3986 21.436L 43.3986 25L 29.5476 25L 29.5476 6.1ZM 65.4766 21.49L 65.4766 25L 50.8426 25L 50.8426 6.1L 65.1256 6.1L 65.1256 9.61L 55.1896 9.61L 55.1896 13.714L 63.9646 13.714L 63.9646 17.116L 55.1896 17.116L 55.1896 21.49L 65.4766 21.49ZM 85.8638 25L 81.3008 18.439L 76.8188 25L 71.7968 25L 78.7898 15.388L 72.1478 6.1L 77.1158 6.1L 81.4628 12.229L 85.7288 6.1L 90.4538 6.1L 83.8658 15.226L 90.9128 25L 85.8638 25Z"/>
<path id="path1_fill" fill-rule="evenodd" d="M 0 0L 5 0L 5 5L 0 5L 0 0Z"/>
</defs>
</svg>
