<svg width="32" height="32" viewBox="0 0 32 32" version="1.1" xmlns="http://www.w3.org/2000/svg" xmlns:xlink="http://www.w3.org/1999/xlink">
<title>no-risk</title>
<desc>Created using Figma</desc>
<g id="Canvas" transform="translate(-533 885)">
<g id="no-risk">
<g id="Shape">
<use xlink:href="#path0_stroke" transform="translate(543 -875)" fill="#8A91FF"/>
</g>
<g id="Shape">
<use xlink:href="#path1_stroke" transform="translate(543 -875)" fill="#8A91FF"/>
</g>
<g id="Oval">
<use xlink:href="#path2_stroke" transform="translate(534 -884)" fill="#8A91FF"/>
</g>
</g>
</g>
<defs>
<path id="path0_stroke" d="M 12.7071 0.707107L 13.4142 0L 12 -1.41421L 11.2929 -0.707107L 12.7071 0.707107ZM -0.707107 11.2929L -1.41421 12L 0 13.4142L 0.707107 12.7071L -0.707107 11.2929ZM 11.2929 -0.707107L -0.707107 11.2929L 0.707107 12.7071L 12.7071 0.707107L 11.2929 -0.707107Z"/>
<path id="path1_stroke" d="M 11.2929 12.7071L 12 13.4142L 13.4142 12L 12.7071 11.2929L 11.2929 12.7071ZM 0.707107 -0.707107L 0 -1.41421L -1.41421 0L -0.707107 0.707107L 0.707107 -0.707107ZM 12.7071 11.2929L 0.707107 -0.707107L -0.707107 0.707107L 11.2929 12.7071L 12.7071 11.2929Z"/>
<path id="path2_stroke" d="M 15 31C 23.8366 31 31 23.8366 31 15L 29 15C 29 22.732 22.732 29 15 29L 15 31ZM 31 15C 31 6.16344 23.8366 -1 15 -1L 15 1C 22.732 1 29 7.26801 29 15L 31 15ZM 15 -1C 6.16344 -1 -1 6.16344 -1 15L 1 15C 1 7.26801 7.26801 1 15 1L 15 -1ZM -1 15C -1 23.8366 6.16344 31 15 31L 15 29C 7.26801 29 1 22.732 1 15L -1 15Z"/>
</defs>
</svg>
