<svg width="22" height="32" viewBox="0 0 22 32" version="1.1" xmlns="http://www.w3.org/2000/svg" xmlns:xlink="http://www.w3.org/1999/xlink">
<title>price-lock</title>
<desc>Created using Figma</desc>
<g id="Canvas" transform="translate(-139 885)">
<g id="price-lock">
<g id="Shape">
<use xlink:href="#path0_stroke" transform="translate(144 -884)" fill="#8A91FF"/>
</g>
<g id="Oval">
<use xlink:href="#path1_stroke" transform="translate(140 -874)" fill="#8A91FF"/>
</g>
<g id="Shape">
<use xlink:href="#path2_stroke" transform="translate(150 -863)" fill="#8A91FF"/>
</g>
<g id="Oval">
<use xlink:href="#path3_stroke" transform="translate(147 -869)" fill="#8A91FF"/>
</g>
</g>
</g>
<defs>
<path id="path0_stroke" d="M 1 12L 1 6L -1 6L -1 12L 1 12ZM 1 6C 1 3.25228 3.25228 1 6 1L 6 -1C 2.14772 -1 -1 2.14772 -1 6L 1 6ZM 6 1C 8.74771 1 11 3.25228 11 6L 13 6C 13 2.14772 9.85228 -1 6 -1L 6 1ZM 11 6L 11 12L 13 12L 13 6L 11 6Z"/>
<path id="path1_stroke" d="M 10 21C 16.0751 21 21 16.0751 21 10L 19 10C 19 14.9706 14.9706 19 10 19L 10 21ZM 21 10C 21 3.92487 16.0751 -1 10 -1L 10 1C 14.9706 1 19 5.02944 19 10L 21 10ZM 10 -1C 3.92487 -1 -1 3.92487 -1 10L 1 10C 1 5.02944 5.02944 1 10 1L 10 -1ZM -1 10C -1 16.0751 3.92487 21 10 21L 10 19C 5.02944 19 1 14.9706 1 10L -1 10Z"/>
<path id="path2_stroke" d="M 1 0L 1 -1L -1 -1L -1 0L 1 0ZM -1 3L -1 4L 1 4L 1 3L -1 3ZM -1 0L -1 3L 1 3L 1 0L -1 0Z"/>
<path id="path3_stroke" d="M 3 7C 5.20914 7 7 5.20914 7 3L 5 3C 5 4.10457 4.10457 5 3 5L 3 7ZM 7 3C 7 0.790861 5.20914 -1 3 -1L 3 1C 4.10457 1 5 1.89543 5 3L 7 3ZM 3 -1C 0.790861 -1 -1 0.790861 -1 3L 1 3C 1 1.89543 1.89543 1 3 1L 3 -1ZM -1 3C -1 5.20914 0.790861 7 3 7L 3 5C 1.89543 5 1 4.10457 1 3L -1 3Z"/>
</defs>
</svg>
