<svg width="27" height="31" viewBox="0 0 27 31" version="1.1" xmlns="http://www.w3.org/2000/svg" xmlns:xlink="http://www.w3.org/1999/xlink">
<title>tablet</title>
<desc>Created using Figma</desc>
<g id="Canvas" transform="translate(188 1195)">
<g id="tablet" opacity="0.9">
<g id="Shape">
<use xlink:href="#path0_stroke" transform="translate(-187.5 -1194.5)" fill="#B0B4C4"/>
</g>
<g id="Rectangle-path">
<use xlink:href="#path1_stroke" transform="translate(-183.5 -1190.5)" fill="#B0B4C4"/>
</g>
<g id="Oval">
<use xlink:href="#path2_fill" transform="translate(-175.5 -1169.5)" fill="#444444"/>
</g>
</g>
</g>
<defs>
<path id="path0_stroke" d="M 24 29.5L 2 29.5L 2 30.5L 24 30.5L 24 29.5ZM 2 29.5C 1.17114 29.5 0.5 28.8289 0.5 28L -0.5 28C -0.5 29.3811 0.618858 30.5 2 30.5L 2 29.5ZM 0.5 28L 0.5 2L -0.5 2L -0.5 28L 0.5 28ZM 0.5 2C 0.5 1.17114 1.17114 0.5 2 0.5L 2 -0.5C 0.618858 -0.5 -0.5 0.618858 -0.5 2L 0.5 2ZM 2 0.5L 24 0.5L 24 -0.5L 2 -0.5L 2 0.5ZM 24 0.5C 24.8289 0.5 25.5 1.17114 25.5 2L 26.5 2C 26.5 0.618858 25.3811 -0.5 24 -0.5L 24 0.5ZM 25.5 2L 25.5 28L 26.5 28L 26.5 2L 25.5 2ZM 25.5 28C 25.5 28.8289 24.8289 29.5 24 29.5L 24 30.5C 25.3811 30.5 26.5 29.3811 26.5 28L 25.5 28Z"/>
<path id="path1_stroke" d="M 0 0L 0 -0.5L -0.5 -0.5L -0.5 0L 0 0ZM 18 0L 18.5 0L 18.5 -0.5L 18 -0.5L 18 0ZM 18 18L 18 18.5L 18.5 18.5L 18.5 18L 18 18ZM 0 18L -0.5 18L -0.5 18.5L 0 18.5L 0 18ZM 0 0.5L 18 0.5L 18 -0.5L 0 -0.5L 0 0.5ZM 17.5 0L 17.5 18L 18.5 18L 18.5 0L 17.5 0ZM 18 17.5L 0 17.5L 0 18.5L 18 18.5L 18 17.5ZM 0.5 18L 0.5 0L -0.5 0L -0.5 18L 0.5 18Z"/>
<path id="path2_fill" d="M 1 2C 1.55228 2 2 1.55228 2 1C 2 0.447715 1.55228 0 1 0C 0.447715 0 0 0.447715 0 1C 0 1.55228 0.447715 2 1 2Z"/>
</defs>
</svg>
