<svg width="340" height="42" viewBox="0 0 340 42" version="1.1" xmlns="http://www.w3.org/2000/svg" xmlns:xlink="http://www.w3.org/1999/xlink">
<title>Title</title>
<desc>Created using Figma</desc>
<g id="Canvas" transform="translate(434 1525)">
<g id="Title">
<use xlink:href="#path0_fill" transform="translate(-438 -1548)" fill="#666EE8"/>
</g>
</g>
<defs>
<path id="path0_fill" d="M 34.029 43.252C 36.309 43.974 38.095 45.19 39.387 46.9C 40.679 48.572 41.325 50.643 41.325 53.113C 41.325 56.609 39.957 59.307 37.221 61.207C 34.523 63.069 30.571 64 25.365 64L 4.731 64L 4.731 24.1L 24.225 24.1C 29.089 24.1 32.813 25.031 35.397 26.893C 38.019 28.755 39.33 31.282 39.33 34.474C 39.33 36.412 38.855 38.141 37.905 39.661C 36.993 41.181 35.701 42.378 34.029 43.252ZM 13.908 31.054L 13.908 40.459L 23.085 40.459C 25.365 40.459 27.094 40.06 28.272 39.262C 29.45 38.464 30.039 37.286 30.039 35.728C 30.039 34.17 29.45 33.011 28.272 32.251C 27.094 31.453 25.365 31.054 23.085 31.054L 13.908 31.054ZM 24.681 57.046C 27.113 57.046 28.937 56.647 30.153 55.849C 31.407 55.051 32.034 53.816 32.034 52.144C 32.034 48.838 29.583 47.185 24.681 47.185L 13.908 47.185L 13.908 57.046L 24.681 57.046ZM 66.043 64.684C 60.343 64.684 55.897 63.107 52.705 59.953C 49.551 56.799 47.974 52.296 47.974 46.444L 47.974 24.1L 57.208 24.1L 57.208 46.102C 57.208 53.246 60.172 56.818 66.1 56.818C 68.988 56.818 71.192 55.963 72.712 54.253C 74.232 52.505 74.992 49.788 74.992 46.102L 74.992 24.1L 84.112 24.1L 84.112 46.444C 84.112 52.296 82.516 56.799 79.324 59.953C 76.17 63.107 71.743 64.684 66.043 64.684ZM 111.832 49.864L 111.832 64L 102.598 64L 102.598 49.75L 87.1512 24.1L 96.9552 24.1L 107.614 41.827L 118.273 24.1L 127.336 24.1L 111.832 49.864ZM 178.008 64.684L 173.22 60.238C 169.42 63.202 164.974 64.684 159.882 64.684C 156.994 64.684 154.391 64.228 152.073 63.316C 149.755 62.366 147.931 61.055 146.601 59.383C 145.309 57.711 144.663 55.83 144.663 53.74C 144.663 51.27 145.347 49.104 146.715 47.242C 148.121 45.342 150.363 43.537 153.441 41.827C 151.997 40.345 150.952 38.939 150.306 37.609C 149.66 36.241 149.337 34.835 149.337 33.391C 149.337 31.453 149.85 29.743 150.876 28.261C 151.902 26.779 153.346 25.639 155.208 24.841C 157.108 24.005 159.293 23.587 161.763 23.587C 165.221 23.587 167.995 24.423 170.085 26.095C 172.175 27.729 173.22 29.952 173.22 32.764C 173.22 34.816 172.593 36.64 171.339 38.236C 170.123 39.832 168.147 41.371 165.411 42.853L 172.707 49.636C 173.581 47.812 174.246 45.741 174.702 43.423L 181.827 45.646C 181.067 49.18 179.851 52.201 178.179 54.709L 182.853 59.041L 178.008 64.684ZM 161.763 29.629C 160.433 29.629 159.369 29.971 158.571 30.655C 157.811 31.339 157.431 32.213 157.431 33.277C 157.431 34.075 157.64 34.835 158.058 35.557C 158.476 36.241 159.293 37.172 160.509 38.35C 162.447 37.324 163.796 36.412 164.556 35.614C 165.316 34.778 165.696 33.885 165.696 32.935C 165.696 31.947 165.354 31.149 164.67 30.541C 163.986 29.933 163.017 29.629 161.763 29.629ZM 160.509 57.73C 163.283 57.73 165.772 56.951 167.976 55.393L 158.343 46.387C 156.557 47.413 155.284 48.42 154.524 49.408C 153.764 50.396 153.384 51.517 153.384 52.771C 153.384 54.253 154.03 55.45 155.322 56.362C 156.614 57.274 158.343 57.73 160.509 57.73ZM 218.065 64.684C 214.911 64.684 211.852 64.266 208.888 63.43C 205.962 62.556 203.606 61.435 201.82 60.067L 204.955 53.113C 206.665 54.367 208.698 55.374 211.054 56.134C 213.41 56.894 215.766 57.274 218.122 57.274C 220.744 57.274 222.682 56.894 223.936 56.134C 225.19 55.336 225.817 54.291 225.817 52.999C 225.817 52.049 225.437 51.27 224.677 50.662C 223.955 50.016 223.005 49.503 221.827 49.123C 220.687 48.743 219.129 48.325 217.153 47.869C 214.113 47.147 211.624 46.425 209.686 45.703C 207.748 44.981 206.076 43.822 204.67 42.226C 203.302 40.63 202.618 38.502 202.618 35.842C 202.618 33.524 203.245 31.434 204.499 29.572C 205.753 27.672 207.634 26.171 210.142 25.069C 212.688 23.967 215.785 23.416 219.433 23.416C 221.979 23.416 224.468 23.72 226.9 24.328C 229.332 24.936 231.46 25.81 233.284 26.95L 230.434 33.961C 226.748 31.871 223.062 30.826 219.376 30.826C 216.792 30.826 214.873 31.244 213.619 32.08C 212.403 32.916 211.795 34.018 211.795 35.386C 211.795 36.754 212.498 37.78 213.904 38.464C 215.348 39.11 217.533 39.756 220.459 40.402C 223.499 41.124 225.988 41.846 227.926 42.568C 229.864 43.29 231.517 44.43 232.885 45.988C 234.291 47.546 234.994 49.655 234.994 52.315C 234.994 54.595 234.348 56.685 233.056 58.585C 231.802 60.447 229.902 61.929 227.356 63.031C 224.81 64.133 221.713 64.684 218.065 64.684ZM 272.197 56.59L 272.197 64L 241.303 64L 241.303 24.1L 271.456 24.1L 271.456 31.51L 250.48 31.51L 250.48 40.174L 269.005 40.174L 269.005 47.356L 250.48 47.356L 250.48 56.59L 272.197 56.59ZM 279.544 24.1L 288.778 24.1L 288.778 56.476L 308.785 56.476L 308.785 64L 279.544 64L 279.544 24.1ZM 313.945 24.1L 323.179 24.1L 323.179 56.476L 343.186 56.476L 343.186 64L 313.945 64L 313.945 24.1Z"/>
</defs>
</svg>
